<svg xmlns="http://www.w3.org/2000/svg" viewBox="2612 26 35 38.247"><defs><style>.a{fill:#fff;}.b{fill:#e2b81d;}</style></defs><g transform="translate(2592.051 26)"><path class="a" d="M332.761,151.487h-2.548v-.2a.61.61,0,0,0-1.221,0v13.747a.61.61,0,1,0,1.221,0v-.2h2.548A2.831,2.831,0,0,0,335.588,162v-7.685A2.831,2.831,0,0,0,332.761,151.487ZM334.368,162a1.609,1.609,0,0,1-1.607,1.607h-2.548v-10.9h2.548a1.609,1.609,0,0,1,1.607,1.607Z" transform="translate(-283.894 -138.412)"/><path class="b" d="M48.866,9.82H46.318V7.091a.61.61,0,0,0-.61-.61h-.287a4.771,4.771,0,0,0-5.994-3.99,7.091,7.091,0,0,0-10.792,0A4.771,4.771,0,0,0,22.64,6.48h-.287a.61.61,0,0,0-.61.61V32a3.306,3.306,0,0,0,1.512,6.246H44.806A3.306,3.306,0,0,0,46.318,32V29.67h2.548a6.09,6.09,0,0,0,6.083-6.083V15.9A6.09,6.09,0,0,0,48.866,9.82ZM27.37,3.541a3.535,3.535,0,0,1,1.26.231.61.61,0,0,0,.7-.2,5.87,5.87,0,0,1,9.391,0,.61.61,0,0,0,.7.2A3.55,3.55,0,0,1,44.187,6.48H23.874A3.555,3.555,0,0,1,27.37,3.541ZM53.728,23.588a4.868,4.868,0,0,1-4.862,4.862H45.708a.61.61,0,0,0-.61.61V32.4a.61.61,0,0,0,.406.575,2.086,2.086,0,0,1-.7,4.051H23.255a2.086,2.086,0,0,1-.7-4.051.61.61,0,0,0,.406-.575V7.7H45.1V10.43a.61.61,0,0,0,.61.61h3.158A4.868,4.868,0,0,1,53.728,15.9v7.685Z" transform="translate(0 0)"/><path class="a" d="M83.752,262.064H75.045a1.833,1.833,0,0,1-1.831-1.831v-8.949a.61.61,0,1,0-1.221,0v8.949a3.055,3.055,0,0,0,3.052,3.052h8.707a.61.61,0,0,0,0-1.221Z" transform="translate(-47.809 -230.274)"/><circle class="a" cx="0.61" cy="0.61" r="0.61" transform="translate(39.605 22.76)"/><path class="a" d="M.61,0A.61.61,0,1,1,0,.61.61.61,0,0,1,.61,0Z" transform="translate(39.605 25.201)"/><path class="a" d="M91.076,109.635a.61.61,0,0,0-.61.61v5.984H73.214v-5.984a.61.61,0,0,0-1.221,0v9.036a.61.61,0,1,0,1.221,0V117.45H90.465v13.222a1.833,1.833,0,0,1-1.831,1.831H86.193a.61.61,0,0,0,0,1.221h2.441a3.055,3.055,0,0,0,3.052-3.052V110.245A.61.61,0,0,0,91.076,109.635Z" transform="translate(-47.809 -100.713)"/></g></svg>