<svg xmlns="http://www.w3.org/2000/svg" viewBox="2141 221 35 36.207"><defs><style>.a{fill:#fff;}</style></defs><g transform="translate(2132.467 221)"><g transform="translate(8.533)"><g transform="translate(0)"><path class="a" d="M11.55,6.035a.6.6,0,0,0,.6-.6,1.813,1.813,0,0,1,1.81-1.81.6.6,0,0,0,0-1.207A1.813,1.813,0,0,1,12.154.6a.6.6,0,1,0-1.207,0,1.813,1.813,0,0,1-1.81,1.81.6.6,0,1,0,0,1.207,1.813,1.813,0,0,1,1.81,1.81A.6.6,0,0,0,11.55,6.035Zm0-3.622a3.043,3.043,0,0,0,.605.605,3.043,3.043,0,0,0-.605.605,3.043,3.043,0,0,0-.605-.605A3.043,3.043,0,0,0,11.55,2.413Z" transform="translate(-8.533 -0.001)"/><path class="a" d="M54.217,462.008h-.6v-.6a.6.6,0,0,0-1.207,0v.6h-.6a.6.6,0,1,0,0,1.207h.6v.6a.6.6,0,1,0,1.207,0v-.6h.6a.6.6,0,0,0,0-1.207Z" transform="translate(-48.183 -428.215)"/><path class="a" d="M454.926,61.542l.78-.78a.6.6,0,0,0-.853-.853l-.78.78-.78-.78a.6.6,0,0,0-.853.853l.78.78-.78.78a.6.6,0,1,0,.853.853l.78-.78.78.78a.6.6,0,0,0,.853-.853Z" transform="translate(-420.883 -55.508)"/><path class="a" d="M461.4,460.8a.6.6,0,1,0,.6.6A.6.6,0,0,0,461.4,460.8Z" transform="translate(-428.816 -428.214)"/><path class="a" d="M61.969,5.249a3.022,3.022,0,0,0-1.8-2.582V.6a.6.6,0,0,0-.6-.6H57.148a.6.6,0,0,0-.6.6V2.666a3.022,3.022,0,0,0-1.8,2.582A15.69,15.69,0,0,0,57.6,36.189a.6.6,0,0,0,.148.018.611.611,0,0,0,.1-.009c.168.005.336.009.505.009s.331,0,.5-.009a.575.575,0,0,0,.241-.009A15.69,15.69,0,0,0,61.969,5.249Zm7.266,24.816a16.994,16.994,0,0,0-4.3-1.988,22.093,22.093,0,0,0,1.255-6.956h6.631A14.421,14.421,0,0,1,69.235,30.064Zm-25.35-8.943h6.632a22.147,22.147,0,0,0,1.251,6.957,17,17,0,0,0-4.294,1.986A14.422,14.422,0,0,1,43.885,21.121Zm3.589-10.15a17,17,0,0,0,4.3,1.988,22.091,22.091,0,0,0-1.255,6.956H43.885A14.421,14.421,0,0,1,47.474,10.97ZM57.751,6.228v6.437a21.784,21.784,0,0,1-4.358-.512A16.681,16.681,0,0,1,57.751,6.228Zm0,7.644v6.042H51.725a20.839,20.839,0,0,1,1.217-6.637A22.862,22.862,0,0,0,57.751,13.872Zm0,7.249v6.042a22.861,22.861,0,0,0-4.814.6,20.888,20.888,0,0,1-1.213-6.638Zm0,7.249v6.448a16.639,16.639,0,0,1-4.363-5.935A21.785,21.785,0,0,1,57.751,28.369Zm1.207-1.207V21.121h6.027a20.833,20.833,0,0,1-1.217,6.637A22.863,22.863,0,0,0,58.958,27.163Zm4.358,1.719a16.683,16.683,0,0,1-4.358,5.925V28.369A21.784,21.784,0,0,1,63.316,28.881Zm-4.358-8.967V13.872a22.861,22.861,0,0,0,4.814-.6,20.888,20.888,0,0,1,1.213,6.638Zm0-7.249V6.218a16.639,16.639,0,0,1,4.363,5.935A21.775,21.775,0,0,1,58.958,12.665Zm1.783-6.433a14.453,14.453,0,0,1,7.645,3.85A15.794,15.794,0,0,1,64.5,11.841,17.982,17.982,0,0,0,60.741,6.232Zm-4.758,0a18.019,18.019,0,0,0-3.771,5.612,15.8,15.8,0,0,1-3.889-1.76A14.454,14.454,0,0,1,55.983,6.23ZM52.207,29.194A17.983,17.983,0,0,0,55.968,34.8a14.454,14.454,0,0,1-7.645-3.85A15.8,15.8,0,0,1,52.207,29.194Zm12.291,0a15.8,15.8,0,0,1,3.889,1.76A14.454,14.454,0,0,1,60.727,34.8,18.02,18.02,0,0,0,64.5,29.192Zm1.694-9.279a22.146,22.146,0,0,0-1.251-6.957,17,17,0,0,0,4.295-1.986,14.422,14.422,0,0,1,3.588,8.943ZM57.751,1.207h1.207V2.414H57.751Zm0,2.414h1.207a1.814,1.814,0,0,1,1.707,1.207H56.044A1.814,1.814,0,0,1,57.751,3.621Z" transform="translate(-40.251)"/></g></g></g></svg>