<svg xmlns="http://www.w3.org/2000/svg" viewBox="-1311.832 294.168 156.664 156.664">
  <defs>
    <style>
      .cls-1 {
        fill: none;
        stroke: #2c365e;
        stroke-width: 14px;
      }

      .cls-2 {
        fill: #fff;
      }
    </style>
  </defs>
  <g id="party-activity" transform="translate(-1234 44)">
    <path id="party" class="cls-1" d="M70.5.5a70,70,0,1,1-70,70A70,70,0,0,1,70.5.5Z" transform="matrix(1, -0.017, 0.017, 1, -71.22, 259.241)"/>
    <g id="mirror-ball" transform="translate(-47.533 287)">
      <g id="Group_8" data-name="Group 8" transform="translate(8.533)">
        <g id="Group_7" data-name="Group 7" transform="translate(0)">
          <path id="Path_27" data-name="Path 27" class="cls-2" d="M15.2,13.334A1.333,1.333,0,0,0,16.533,12a4,4,0,0,1,4-4,1.333,1.333,0,0,0,0-2.667,4,4,0,0,1-4-4,1.333,1.333,0,1,0-2.667,0,4,4,0,0,1-4,4A1.333,1.333,0,1,0,9.866,8a4,4,0,0,1,4,4A1.333,1.333,0,0,0,15.2,13.334Zm0-8a6.724,6.724,0,0,0,1.337,1.337A6.724,6.724,0,0,0,15.2,8a6.724,6.724,0,0,0-1.337-1.337A6.724,6.724,0,0,0,15.2,5.33Z" transform="translate(-8.533 -0.001)"/>
          <path id="Path_28" data-name="Path 28" class="cls-2" d="M57.866,463.467H56.533v-1.333a1.333,1.333,0,0,0-2.667,0v1.333H52.533a1.333,1.333,0,1,0,0,2.667h1.333v1.333a1.333,1.333,0,1,0,2.667,0v-1.333h1.333a1.333,1.333,0,0,0,0-2.667Z" transform="translate(-44.533 -388.801)"/>
          <path id="Path_29" data-name="Path 29" class="cls-2" d="M458.148,63.732l1.724-1.724a1.333,1.333,0,0,0-1.885-1.885l-1.724,1.724-1.724-1.724a1.333,1.333,0,1,0-1.885,1.885l1.724,1.724-1.724,1.724a1.333,1.333,0,1,0,1.885,1.885l1.724-1.724,1.724,1.724a1.333,1.333,0,0,0,1.885-1.885Z" transform="translate(-382.93 -50.399)"/>
          <path id="Path_30" data-name="Path 30" class="cls-2" d="M462.132,460.8a1.333,1.333,0,1,0,1.333,1.333A1.333,1.333,0,0,0,462.132,460.8Z" transform="translate(-390.133 -388.8)"/>
          <path id="Path_31" data-name="Path 31" class="cls-2" d="M85.318,11.6a6.678,6.678,0,0,0-3.987-5.705V1.333A1.333,1.333,0,0,0,80,0H74.665a1.333,1.333,0,0,0-1.333,1.333V5.892A6.678,6.678,0,0,0,69.345,11.6a34.668,34.668,0,0,0,6.326,68.362A1.332,1.332,0,0,0,76,80a1.349,1.349,0,0,0,.219-.02c.371.012.742.02,1.116.02s.73-.008,1.094-.019a1.271,1.271,0,0,0,.533-.02A34.667,34.667,0,0,0,85.318,11.6Zm16.055,54.83a37.55,37.55,0,0,0-9.5-4.392A48.815,48.815,0,0,0,94.65,46.667H109.3A31.864,31.864,0,0,1,101.373,66.427ZM45.362,46.667H60.014a48.934,48.934,0,0,0,2.765,15.371,37.554,37.554,0,0,0-9.489,4.389A31.865,31.865,0,0,1,45.362,46.667ZM53.29,24.24a37.553,37.553,0,0,0,9.5,4.392A48.811,48.811,0,0,0,60.014,44H45.362A31.864,31.864,0,0,1,53.29,24.24ZM76,13.761V27.984a48.131,48.131,0,0,1-9.629-1.131A36.858,36.858,0,0,1,76,13.761ZM76,30.65V44H62.683a46.044,46.044,0,0,1,2.688-14.664A50.515,50.515,0,0,0,76,30.65Zm0,16.016v13.35a50.512,50.512,0,0,0-10.636,1.316,46.153,46.153,0,0,1-2.68-14.666Zm0,16.016V76.929a36.765,36.765,0,0,1-9.64-13.113A48.135,48.135,0,0,1,76,62.683Zm2.667-2.666V46.667H91.981a46.03,46.03,0,0,1-2.689,14.664A50.515,50.515,0,0,0,78.665,60.016Zm9.629,3.8A36.862,36.862,0,0,1,78.665,76.9V62.683A48.132,48.132,0,0,1,88.294,63.814ZM78.665,44V30.65A50.512,50.512,0,0,0,89.3,29.334,46.153,46.153,0,0,1,91.981,44Zm0-16.016V13.738A36.765,36.765,0,0,1,88.3,26.851,48.113,48.113,0,0,1,78.665,27.984ZM82.6,13.77A31.935,31.935,0,0,1,99.5,22.276a34.9,34.9,0,0,1-8.582,3.886A39.732,39.732,0,0,0,82.6,13.77Zm-10.513-.005a39.813,39.813,0,0,0-8.332,12.4,34.9,34.9,0,0,1-8.592-3.89A31.936,31.936,0,0,1,72.091,13.765ZM63.749,64.5A39.735,39.735,0,0,0,72.059,76.9,31.935,31.935,0,0,1,55.166,68.39,34.9,34.9,0,0,1,63.749,64.5Zm27.156,0A34.9,34.9,0,0,1,99.5,68.39,31.936,31.936,0,0,1,82.573,76.9,39.815,39.815,0,0,0,90.9,64.5ZM94.649,44a48.932,48.932,0,0,0-2.765-15.371,37.554,37.554,0,0,0,9.489-4.389A31.865,31.865,0,0,1,109.3,44ZM76,2.667h2.667V5.333H76ZM76,8h2.667a4.008,4.008,0,0,1,3.772,2.667H72.226A4.008,4.008,0,0,1,76,8Z" transform="translate(-37.332)"/>
        </g>
      </g>
    </g>
  </g>
</svg>
