<svg xmlns="http://www.w3.org/2000/svg" viewBox="2519 46 35 34.971"><defs><style>.a{fill:#e2b81d;}.b{fill:#fff;}</style></defs><g transform="translate(2519 45.785)"><g transform="translate(3.344 3.488)"><path class="a" d="M80.57,63.93A15.853,15.853,0,0,0,64.744,48.089H64.21v15.3h-15.3v.534A15.813,15.813,0,0,0,64.2,79.754v.033l1.067-.007v-.027A15.837,15.837,0,0,0,80.57,63.93Zm-16.36.522v2.277h-.569V67.8h.569v7.043h1.067V64.452H75.664V63.385H70.755v-.5H69.617v.5h-4.34V62.162a1.627,1.627,0,1,0,0-3.016V53.5h.5V52.429h-.5V51.363a12.531,12.531,0,0,1,4.541,1.066h-.7V53.5h1.067v-.9a12.608,12.608,0,0,1,6.883,8.937l-.322.161-1.052-.526-1.849.616.337,1.012,1.43-.477,1.134.567.487-.243c.025.244.042.49.053.738H76.233v1.067h1.055a12.517,12.517,0,0,1-1.777,5.95,1.627,1.627,0,1,0-1.718,2.248,12.536,12.536,0,0,1-8.516,3.865V75.48H64.21v1.037q-.286-.011-.569-.036v-.5H62.5v.353A12.534,12.534,0,0,1,57.051,73.9l1.679-1.679-2.3-2.3L54.752,71.6a12.679,12.679,0,0,1-.805-1.175h.374V69.361h-.952a12.45,12.45,0,0,1-1.22-4.909H64.21Zm1.117-3.8a.56.56,0,1,1,.56.56A.56.56,0,0,1,65.327,60.654Zm9.246,10.385a.56.56,0,1,1-.56-.56A.56.56,0,0,1,74.573,71.039ZM56.43,73.017l-.791-.791.791-.791.791.791Zm8.829,5.669,0-.545-1.067.007,0,.538A14.77,14.77,0,0,1,49.961,64.452h1.12a13.648,13.648,0,1,0,14.2-14.157V49.172A14.784,14.784,0,0,1,79.492,63.385h-.484v1.067h.485A14.766,14.766,0,0,1,65.259,78.686Z" transform="translate(-48.914 -48.089)"/></g><g transform="translate(0 0.215)"><path class="b" d="M16.363.215H15.83A15.86,15.86,0,0,0,0,16.045v.534H.035v.008H9.587a.287.287,0,0,1,.286.286,1.355,1.355,0,0,0,1.353,1.353h.547a1.355,1.355,0,0,0,1.353-1.353.287.287,0,0,1,.286-.286h2.993V.215Zm-4.3,16.657a.287.287,0,0,1-.286.286h-.547a.287.287,0,0,1-.286-.286,1.35,1.35,0,0,0-.033-.294h1.185A1.347,1.347,0,0,0,12.059,16.872ZM15.3,15.511H9.32v-.5H8.253v.5H3.3a12.529,12.529,0,0,1,1.274-4.98h.9V9.464H5.166a12.7,12.7,0,0,1,5.313-4.774A1.627,1.627,0,1,0,13,3.8a12.461,12.461,0,0,1,2.3-.32V15.511ZM11.487,5.121a.559.559,0,1,1,.559.56A.56.56,0,0,1,11.487,5.121ZM15.3,2.414a13.666,13.666,0,0,0-13.062,13.1H1.112A14.789,14.789,0,0,1,15.3,1.294v1.12Z" transform="translate(0 -0.215)"/></g><g transform="translate(5.501 11.146)"><path class="b" d="M82.095,160.125a1.627,1.627,0,1,0,1.627,1.627A1.628,1.628,0,0,0,82.095,160.125Zm0,2.186a.56.56,0,1,1,.56-.56A.56.56,0,0,1,82.095,162.311Z" transform="translate(-80.468 -160.125)"/></g><g transform="translate(25.177 13.333)"><path class="b" d="M369.932,192.107a1.627,1.627,0,1,0,1.627,1.627A1.629,1.629,0,0,0,369.932,192.107Zm0,2.186a.56.56,0,1,1,.56-.56A.56.56,0,0,1,369.932,194.293Z" transform="translate(-368.305 -192.107)"/></g><g transform="translate(20.258 22.078)"><path class="b" d="M297.972,320.035a1.627,1.627,0,1,0,1.627,1.627A1.628,1.628,0,0,0,297.972,320.035Zm0,2.186a.56.56,0,1,1,.56-.56A.56.56,0,0,1,297.972,322.221Z" transform="translate(-296.345 -320.035)"/></g><g transform="translate(13.699 26.997)"><path class="b" d="M202.027,391.994a1.627,1.627,0,1,0,1.627,1.627A1.628,1.628,0,0,0,202.027,391.994Zm0,2.186a.56.56,0,1,1,.56-.56A.56.56,0,0,1,202.027,394.18Z" transform="translate(-200.4 -391.994)"/></g><g transform="translate(9.873 20.985)"><path class="b" d="M146.059,304.044a1.627,1.627,0,1,0,1.627,1.627A1.628,1.628,0,0,0,146.059,304.044Zm0,2.186a.56.56,0,1,1,.559-.56A.56.56,0,0,1,146.059,306.23Z" transform="translate(-144.432 -304.044)"/></g><g transform="translate(10.238 12.744)"><path class="b" d="M153.524,183.589l-.854.427-1.052-.526-1.849.616.337,1.012,1.43-.477,1.134.567,1.332-.666Z" transform="translate(-149.768 -183.49)"/></g><g transform="translate(13.517 24.221)"><path class="b" d="M201.5,351.494l-.854.427-1.052-.526-1.849.616.338,1.012,1.43-.477,1.134.567,1.332-.666Z" transform="translate(-197.74 -351.395)"/></g><g transform="translate(23.356 20.396)"><path class="b" d="M345.415,295.526l-.855.427-1.052-.526-1.849.616.337,1.012,1.43-.477,1.134.567,1.332-.666Z" transform="translate(-341.659 -295.427)"/></g><g transform="translate(9.106 7.834)"><path class="b" d="M135.5,111.663l-2.3,2.3,2.3,2.3,2.3-2.3Zm-.791,2.3.791-.791.791.791-.791.791Z" transform="translate(-133.203 -111.663)"/></g><g transform="translate(20.583 9.286)"><path class="b" d="M303.407,132.906l-2.3,2.3,2.3,2.3,2.3-2.3Zm-.791,2.3.791-.791.791.791-.791.791Z" transform="translate(-301.107 -132.906)"/></g><g transform="translate(20.771 25.87)"><path class="b" d="M306.152,375.513l-2.3,2.3,2.3,2.3,2.3-2.3Zm-.791,2.3.791-.791.791.791-.791.791Z" transform="translate(-303.852 -375.513)"/></g><g transform="translate(8.253 7.33)"><rect class="b" width="1.067" height="1.067"/></g><g transform="translate(13.66 7.828)"><rect class="b" width="1.138" height="1.067"/></g><g transform="translate(26.821 11.1)"><path class="b" d="M0,0H1.067V1.067H0Z"/></g><g transform="translate(22.979 17.076)"><rect class="b" width="1.067" height="1.067"/></g><g transform="translate(29.525 15.013)"><path class="b" d="M0,0H1.138V1.067H0Z"/></g><g transform="translate(20.774 20.42)"><path class="b" d="M0,0H1.138V1.067H0Z"/></g><g transform="translate(28.386 22.128)"><rect class="b" width="1.138" height="1.067"/></g><g transform="translate(24.616 23.123)"><path class="b" d="M361.161,335.331v.64h-1.067v1.067h1.067v-.64H362.3v-1.067Z" transform="translate(-360.094 -335.331)"/></g><g transform="translate(20.774 30.309)"><path class="b" d="M0,0H1.138V1.067H0Z"/></g><g transform="translate(14.798 20.42)"><rect class="b" width="1.067" height="1.067"/></g><g transform="translate(16.932 25.898)"><rect class="b" width="1.138" height="1.067"/></g><g transform="translate(7.114 20.42)"><rect class="b" width="1.138" height="1.067"/></g></g></svg>