<svg xmlns="http://www.w3.org/2000/svg" viewBox="-462.832 294.168 156.664 156.664">
  <defs>
    <style>
      .cls-1 {
        fill: none;
        stroke: #2c365e;
        stroke-width: 14px;
      }

      .cls-2 {
        fill: #fff;
      }
    </style>
  </defs>
  <g id="pub-activity" transform="translate(-385 44)">
    <path id="party" class="cls-1" d="M70.5.5a70,70,0,1,1-70,70A70,70,0,0,1,70.5.5Z" transform="matrix(1, -0.017, 0.017, 1, -71.22, 259.241)"/>
    <g id="beer" transform="translate(-52.949 287)">
      <path id="Path_32" data-name="Path 32" class="cls-2" d="M336.875,152.375h-5.33v-.426a1.277,1.277,0,0,0-2.553,0V180.7a1.277,1.277,0,1,0,2.553,0v-.425h5.33a5.921,5.921,0,0,0,5.914-5.915V158.29A5.921,5.921,0,0,0,336.875,152.375Zm3.361,21.99a3.365,3.365,0,0,1-3.361,3.361h-5.33v-22.8h5.33a3.365,3.365,0,0,1,3.361,3.361Z" transform="translate(-256.44 -125.027)"/>
      <path id="Path_33" data-name="Path 33" class="cls-2" d="M80.435,20.54h-5.33V14.831a1.277,1.277,0,0,0-1.277-1.277h-.6A9.979,9.979,0,0,0,60.69,5.209a14.832,14.832,0,0,0-22.574,0,9.979,9.979,0,0,0-12.538,8.346h-.6A1.277,1.277,0,0,0,23.7,14.832v52.1A6.916,6.916,0,0,0,26.865,80H71.942a6.916,6.916,0,0,0,3.164-13.066V62.061h5.33A12.738,12.738,0,0,0,93.158,49.338V33.263A12.738,12.738,0,0,0,80.435,20.54ZM35.472,7.406a7.4,7.4,0,0,1,2.636.483,1.277,1.277,0,0,0,1.474-.426,12.278,12.278,0,0,1,19.643,0,1.276,1.276,0,0,0,1.474.426,7.425,7.425,0,0,1,9.949,5.666H28.159A7.436,7.436,0,0,1,35.472,7.406ZM90.6,49.338a10.181,10.181,0,0,1-10.17,10.17H73.829a1.277,1.277,0,0,0-1.277,1.277V67.77a1.277,1.277,0,0,0,.849,1.2,4.363,4.363,0,0,1-1.46,8.474H26.865a4.363,4.363,0,0,1-1.46-8.474,1.277,1.277,0,0,0,.849-1.2V16.108h46.3v5.709a1.277,1.277,0,0,0,1.277,1.277h6.606A10.181,10.181,0,0,1,90.6,33.263V49.338Z" transform="translate(0 0)"/>
      <path id="Path_34" data-name="Path 34" class="cls-2" d="M96.589,274.5H78.376a3.834,3.834,0,0,1-3.83-3.83V251.95a1.277,1.277,0,1,0-2.553,0v18.719a6.39,6.39,0,0,0,6.383,6.383H96.589a1.277,1.277,0,1,0,0-2.553Z" transform="translate(-43.185 -208.005)"/>
      <ellipse id="Ellipse_1" data-name="Ellipse 1" class="cls-2" cx="1.277" cy="1.277" rx="1.277" ry="1.277" transform="translate(61.063 47.606)"/>
      <path id="Path_37" data-name="Path 37" class="cls-2" d="M1.277,0A1.277,1.277,0,1,1,0,1.277,1.277,1.277,0,0,1,1.277,0Z" transform="translate(61.063 52.713)"/>
      <path id="Path_35" data-name="Path 35" class="cls-2" d="M111.908,109.635a1.277,1.277,0,0,0-1.277,1.277v12.517H74.546V110.912a1.277,1.277,0,0,0-2.553,0v18.9a1.277,1.277,0,0,0,2.553,0v-3.83h36.085v27.655a3.834,3.834,0,0,1-3.83,3.83H101.7a1.277,1.277,0,1,0,0,2.553H106.8a6.39,6.39,0,0,0,6.383-6.383V110.912A1.277,1.277,0,0,0,111.908,109.635Z" transform="translate(-43.185 -90.974)"/>
    </g>
  </g>
</svg>
